<?xml version="1.0" encoding="UTF-8" standalone="no"?>
<svg width="180px" height="185px" viewBox="0 0 180 185" version="1.1" xmlns="http://www.w3.org/2000/svg" xmlns:xlink="http://www.w3.org/1999/xlink">
    <!-- Generator: Sketch 3.7.2 (28276) - http://www.bohemiancoding.com/sketch -->
    <title>icon03</title>
    <desc>Created with Sketch.</desc>
    <defs>
        <path d="M7.03214979,32.4702079 C7.59687695,37.5942757 8.14373373,43.483445 8,46.0000002 C7.62500237,52.5656287 3.45541861,54.0263249 3.00000001,62.0000002 C2.60000294,69.0033302 3,75.1521492 3,75.1521492 L76.0000037,75.1521494 C76.0000037,75.1521494 69.4046819,64.08529 69.0000037,57.0000002 C68.8730378,54.7770246 74.1643377,46.8772349 74.0000037,44.0000002 C73.4149517,33.7566452 70.872549,23.4850466 70.872549,23.4850466 L70.7402182,23.4850466 C69.2492979,10.3181552 55.3446158,0 38.4117647,0 C21.4789136,0 7.57423147,10.3181552 6.08331125,23.4850466 L5.95098039,23.4850466 C5.95098039,23.4850466 5.97807972,23.6901824 6.02608049,24.0623324 C5.97628349,24.6476061 5.95098039,25.238227 5.95098039,25.8335513 C5.95098039,28.127917 6.32681074,30.352424 7.03214979,32.4702079 Z" id="path-1"></path>
        <mask id="mask-2" maskContentUnits="userSpaceOnUse" maskUnits="objectBoundingBox" x="0" y="0" width="73.1777802" height="75.1521494" fill="white">
            <use xlink:href="#path-1"></use>
        </mask>
        <path d="M109.747126,8.99624663 C109.747126,4.02775681 105.717287,0 100.752591,0 L40.9945354,0 C36.0269907,0 32,4.03921538 32,8.99624663 L32,50.4495484 C32,55.4180382 36.0276428,59.445795 41.0066665,59.445795 L70.3119924,59.445795 L90.2507454,78.8799973 L90.250746,59.445795 L100.740836,59.445795 C105.714873,59.445795 109.747126,55.4065797 109.747126,50.4495484 L109.747126,8.99624663" id="path-3"></path>
        <mask id="mask-4" maskContentUnits="userSpaceOnUse" maskUnits="objectBoundingBox" x="0" y="0" width="77.7471264" height="78.8799973" fill="white">
            <use xlink:href="#path-3"></use>
        </mask>
        <path d="M34.8908858,64 L7.00039243,64 C3.13781845,64 0,67.1359105 0,71.0042522 L0,106.273084 L108.764706,106.273084 L108.764706,71.0042522 C108.764706,67.1428158 105.630523,64 101.764313,64 L74.8749979,64 C71.117587,74.3439271 63.575099,81.406564 54.8829419,81.406564 C46.1907847,81.406564 38.6482967,74.3439271 34.8908974,64.0000039 Z" id="path-5"></path>
        <mask id="mask-6" maskContentUnits="userSpaceOnUse" maskUnits="objectBoundingBox" x="0" y="0" width="108.764706" height="42.2730839" fill="white">
            <use xlink:href="#path-5"></use>
        </mask>
    </defs>
    <g id="Page-1" stroke="none" stroke-width="1" fill="none" fill-rule="evenodd">
        <g id="iprop-homepage" transform="translate(-808.000000, -693.000000)">
            <g id="icon03" transform="translate(808.000000, 693.000000)">
                <g id="Group-12" transform="translate(98.000000, 50.000000)">
                    <use id="Combined-Shape" stroke="#FF191F" mask="url(#mask-2)" stroke-width="12" fill="#FF191F" xlink:href="#path-1"></use>
                    <path d="M27.8235294,68.091028 L6.99298887,68.091028 C3.1343719,68.091028 0,71.2291752 0,75.100276 L0,109 L78.4117647,109 L78.4117647,75.100276 C78.4117647,71.233159 75.2808969,68.091028 71.4187758,68.091028 L50.5882353,68.091028 L50.5882353,54 L27.8235294,54 L27.8235294,68.091028 Z" id="Combined-Shape" stroke="#313131" stroke-width="6" fill="#FFFFFF"></path>
                    <path d="M57.9409749,35.6323766 C57.8962451,46.3526983 50.4112148,59.2087567 38.9705882,59.2087567 C27.4955963,59.2087567 20,46.2753483 20,35.5358297 C20,30.2110355 21.8426472,25.5939584 25.0993659,22.2918051 C26.2370246,27.0174286 30.1188457,32.0222731 35.8734919,35.4800134 C44.3027286,40.5448098 53.7763643,40.5033448 57.9409749,35.6323766 Z" id="Combined-Shape" stroke="#313131" stroke-width="6" fill="#FFFFFF"></path>
                </g>
                <use id="Rectangle-82" stroke="#313131" mask="url(#mask-4)" stroke-width="12" fill="#FFFFFF" xlink:href="#path-3"></use>
                <g id="Group-8" transform="translate(71.600000, 29.500000) scale(-1, 1) translate(-71.600000, -29.500000) translate(54.100000, 14.000000)" stroke-width="5" stroke="#FF191F">
                    <polyline id="Path-95" points="6.82 19.0759771 6.82 30.7387659 27.7796337 30.7387659 27.7796337 19.0633025"></polyline>
                    <path d="M28.7414286,9.22916355 L28.7414286,4.04570188" id="Line" stroke-linecap="square"></path>
                    <polyline id="Path-97" points="0 17.5332222 17.4871795 0 34.1 17.5332215"></polyline>
                </g>
                <g id="Group-13" transform="translate(0.000000, 69.000000)" stroke="#313131">
                    <path d="M38,72.9622896 L38,54.1742523" id="Line" stroke-width="6" stroke-linecap="square"></path>
                    <path d="M72,73.9622896 L72,55.1742523" id="Line-Copy-3" stroke-width="6" stroke-linecap="square"></path>
                    <use id="Combined-Shape" mask="url(#mask-6)" stroke-width="12" fill="#FF191F" xlink:href="#path-5"></use>
                    <path d="M31.5133232,41.2253419 C37.2490892,53.261909 49.7198878,64.7126161 55.0882353,64.7126165 C60.4793649,64.712617 73.0333561,53.1645146 78.7358066,41.0720694 C79.2607919,41.2031659 79.8127784,41.2730839 80.3823529,41.2730839 C83.8747418,41.2730839 86.7058824,38.6444305 86.7058824,35.4018223 C86.7058824,32.5611777 84.5331499,30.191707 81.6465173,29.6479051 C81.5598908,14.7940323 71.0865748,0 55.0882353,0 C39.0232465,0 28.5294118,14.9175532 28.5294118,29.8335513 C28.5294118,30.117221 28.5364538,30.402716 28.5503189,30.6898645 C27.0025156,31.7600962 26,33.4722576 26,35.4018223 C26,38.3895583 28.4035707,40.8560613 31.5133232,41.2253419 Z" id="Combined-Shape" stroke-width="6" fill="#FFFFFF"></path>
                </g>
                <path d="M112,150 L112,181" id="Line" stroke="#FFFFFF" stroke-width="7" stroke-linecap="square"></path>
                <path d="M123,130 L92,130" id="Line" stroke="#FFFFFF" stroke-width="6" stroke-linecap="square"></path>
                <path d="M154.016172,85.4861519 C157.613599,79.4990289 153.195419,70.2385124 144.147891,64.8022094 C135.100364,59.3659064 124.849603,59.8124343 121.252177,65.7995574 C117.65475,71.7866804 122.07293,81.047197 131.120458,86.4834999 C140.167985,91.9198029 150.418746,91.473275 154.016172,85.4861519 Z" id="Oval-12" stroke="#FF191F" stroke-width="6" fill="#FF191F"></path>
            </g>
        </g>
    </g>
</svg>