<?xml version="1.0" encoding="UTF-8" standalone="no"?>
<svg width="180px" height="178px" viewBox="0 0 180 178" version="1.1" xmlns="http://www.w3.org/2000/svg" xmlns:xlink="http://www.w3.org/1999/xlink">
    <!-- Generator: Sketch 3.7.2 (28276) - http://www.bohemiancoding.com/sketch -->
    <title>icon02</title>
    <desc>Created with Sketch.</desc>
    <defs>
        <polygon id="path-1" points="0 60 58 60 57.4269231 97.3725496 95 97.372551 95 185 0 185"></polygon>
        <mask id="mask-2" maskContentUnits="userSpaceOnUse" maskUnits="objectBoundingBox" x="0" y="0" width="95" height="125" fill="white">
            <use xlink:href="#path-1"></use>
        </mask>
    </defs>
    <g id="Page-1" stroke="none" stroke-width="1" fill="none" fill-rule="evenodd">
        <g id="iprop-homepage" transform="translate(-449.000000, -691.000000)">
            <g id="icon02" transform="translate(449.000000, 684.000000)">
                <g id="Group-5">
                    <polygon id="Triangle-1" fill="#FF191F" points="55.9730769 65.2941176 93.0461538 101.568627 55.9730769 101.568627"></polygon>
                    <use id="Rectangle-73" stroke="#313131" mask="url(#mask-2)" stroke-width="12" fill="#FFFFFF" xlink:href="#path-1"></use>
                    <rect id="Rectangle-74" fill="#FF191F" x="103.223077" y="59.4901961" width="21.0807692" height="67.4705882"></rect>
                    <path d="M58,64 L91,97" id="Line" stroke="#313131" stroke-width="6" stroke-linecap="square"></path>
                    <polyline id="Path-99" stroke="#313131" stroke-width="6" stroke-linejoin="bevel" points="82.8692308 68.1960784 111.946154 31.9215686 142.476923 61.6666667 173.734615 15.2352941"></polyline>
                    <rect id="Rectangle-74" fill="#FF191F" x="10" y="76.2254902" width="34.7044984" height="6.20588235"></rect>
                    <rect id="Rectangle-74" fill="#FF191F" x="10" y="90.2254902" width="34.7044984" height="6.20588235"></rect>
                    <rect id="Rectangle-74-Copy" fill="#FF191F" x="130.846154" y="84.7916667" width="21.0807692" height="42.1691176"></rect>
                    <rect id="Rectangle-74-Copy-2" fill="#FF191F" x="158.469231" y="59.4901961" width="21.0807692" height="67.4705882"></rect>
                    <polygon id="Triangle-2" fill="#313131" transform="translate(174.398552, 13.735414) rotate(-323.000000) translate(-174.398552, -13.735414) " points="174.398552 5.60853047 185.665859 21.8622985 163.131244 21.8622985"></polygon>
                </g>
                <path d="M11,125.579178 L15.5788587,125.579178 L15.9604303,128.021236 L16.1130589,128.021236 C16.9016441,127.232651 17.7410931,126.552188 18.6314312,125.979828 C19.5217693,125.407468 20.590159,125.121292 21.8366323,125.121292 C23.1848585,125.121292 24.2723266,125.394749 25.0990691,125.941671 C25.9258116,126.488593 26.5808363,127.270807 27.0641627,128.288336 C27.9036243,127.423436 28.7875896,126.679379 29.716085,126.056142 C30.6445804,125.432906 31.7447674,125.121292 33.016679,125.121292 C35.0517375,125.121292 36.5462112,125.801754 37.5001448,127.1627 C38.4540785,128.523645 38.9310382,130.386968 38.9310382,132.752723 L38.9310382,144.505127 L33.3219362,144.505127 L33.3219362,133.477709 C33.3219362,132.104045 33.1375118,131.162844 32.7686575,130.65408 C32.3998031,130.145315 31.8083731,129.890937 30.9943497,129.890937 C30.0531352,129.890937 28.9720266,130.501445 27.7509915,131.72248 L27.7509915,144.505127 L22.1418895,144.505127 L22.1418895,133.477709 C22.1418895,132.104045 21.9574651,131.162844 21.5886108,130.65408 C21.2197564,130.145315 20.6283264,129.890937 19.814303,129.890937 C18.8476502,129.890937 17.7792606,130.501445 16.6091019,131.72248 L16.6091019,144.505127 L11,144.505127 L11,125.579178 Z M42.8302226,124.305683 C44.6188482,122.827086 46.0854992,121.521408 47.2302196,120.388612 C48.37494,119.255816 48.9472916,118.248239 48.9472916,117.36585 C48.9472916,116.674248 48.7684317,116.137669 48.4107066,115.756095 C48.0529815,115.374522 47.5521738,115.183738 46.9082686,115.183738 C46.4313018,115.183738 45.9901141,115.332788 45.5846922,115.630892 C45.1792704,115.928996 44.7738547,116.340374 44.3684329,116.865037 L42.1863205,114.861787 C43.617221,112.953919 45.3938959,112 47.5163983,112 C49.0665405,112 50.3125976,112.411378 51.2546071,113.234146 C52.1966166,114.056913 52.6676143,115.219503 52.6676143,116.721948 C52.6676143,117.294308 52.5662604,117.848774 52.3635495,118.385362 C52.1608386,118.921949 51.8865868,119.452567 51.5407858,119.97723 C51.1949849,120.501894 50.8014931,121.02655 50.3602988,121.551213 C49.9191045,122.075877 49.4481068,122.612456 48.9472916,123.160968 L53.168427,123.160968 L53.168427,126.380478 L42.8302226,126.380478 L42.8302226,124.305683 Z" id="m2" fill="#FF191F"></path>
                <path d="M54.8650066,157.609106 C54.4167736,157.210677 53.9892987,156.911859 53.5825688,156.712644 C53.1758389,156.51343 52.7400635,156.413824 52.2752294,156.413824 C51.7439904,156.413824 51.3455671,156.505129 51.0799476,156.687743 C50.8143281,156.870356 50.6815203,157.210676 50.6815203,157.708713 C50.6815203,158.024136 50.8392295,158.298052 51.1546527,158.530469 C51.4700758,158.762886 51.8684991,158.995299 52.3499345,159.227717 C52.8313698,159.460134 53.3459999,159.709148 53.8938401,159.974768 C54.4416803,160.240387 54.9563104,160.564106 55.4377457,160.945934 C55.9191811,161.327762 56.3176044,161.784289 56.6330275,162.315528 C56.9484507,162.846767 57.1061599,163.485904 57.1061599,164.232959 C57.1061599,165.444848 56.7865912,166.490709 56.1474443,167.370574 C55.5082974,168.250438 54.5329904,168.848073 53.2214941,169.163496 L53.2214941,171.803077 L50.4325033,171.803077 L50.4325033,169.312907 C49.7186509,169.2299 48.9591565,169.034839 48.1539974,168.727717 C47.3488383,168.420594 46.6308463,167.984818 46,167.420377 L47.8427261,164.531779 C48.5233761,165.029816 49.1334617,165.386737 49.6730013,165.602553 C50.2125409,165.818369 50.7479222,165.926275 51.2791612,165.926275 C51.9100075,165.926275 52.3582337,165.814218 52.6238532,165.590102 C52.8894727,165.365985 53.0222805,165.013215 53.0222805,164.531779 C53.0222805,164.199755 52.8645713,163.905088 52.5491481,163.647769 C52.2337249,163.39045 51.8353017,163.137285 51.3538663,162.888267 C50.872431,162.639249 50.3578009,162.377783 49.8099607,162.103863 C49.2621205,161.829943 48.7474904,161.502074 48.266055,161.120246 C47.7846197,160.738418 47.3861964,160.290192 47.0707733,159.775554 C46.7553501,159.260916 46.5976409,158.63838 46.5976409,157.907926 C46.5976409,156.646234 46.9338105,155.600372 47.6061599,154.770312 C48.2785093,153.940251 49.2206143,153.392419 50.4325033,153.126799 L50.4325033,150.537022 L53.2214941,150.537022 L53.2214941,153.076996 C54.0183526,153.209805 54.7197436,153.45882 55.3256881,153.824047 C55.9316326,154.189274 56.4836148,154.6375 56.9816514,155.168739 L54.8650066,157.609106 Z M68.3119266,157.609106 C67.8636937,157.210677 67.4362187,156.911859 67.0294889,156.712644 C66.622759,156.51343 66.1869835,156.413824 65.7221494,156.413824 C65.1909104,156.413824 64.7924871,156.505129 64.5268676,156.687743 C64.2612481,156.870356 64.1284404,157.210676 64.1284404,157.708713 C64.1284404,158.024136 64.2861496,158.298052 64.6015727,158.530469 C64.9169959,158.762886 65.3154192,158.995299 65.7968545,159.227717 C66.2782899,159.460134 66.7929199,159.709148 67.3407602,159.974768 C67.8886004,160.240387 68.4032304,160.564106 68.8846658,160.945934 C69.3661011,161.327762 69.7645244,161.784289 70.0799476,162.315528 C70.3953707,162.846767 70.5530799,163.485904 70.5530799,164.232959 C70.5530799,165.444848 70.2335113,166.490709 69.5943644,167.370574 C68.9552174,168.250438 67.9799104,168.848073 66.6684142,169.163496 L66.6684142,171.803077 L63.8794233,171.803077 L63.8794233,169.312907 C63.1655709,169.2299 62.4060765,169.034839 61.6009174,168.727717 C60.7957583,168.420594 60.0777664,167.984818 59.4469201,167.420377 L61.2896461,164.531779 C61.9702961,165.029816 62.5803817,165.386737 63.1199214,165.602553 C63.659461,165.818369 64.1948423,165.926275 64.7260813,165.926275 C65.3569276,165.926275 65.8051538,165.814218 66.0707733,165.590102 C66.3363928,165.365985 66.4692005,165.013215 66.4692005,164.531779 C66.4692005,164.199755 66.3114913,163.905088 65.9960682,163.647769 C65.680645,163.39045 65.2822217,163.137285 64.8007864,162.888267 C64.319351,162.639249 63.804721,162.377783 63.2568807,162.103863 C62.7090405,161.829943 62.1944104,161.502074 61.7129751,161.120246 C61.2315398,160.738418 60.8331165,160.290192 60.5176933,159.775554 C60.2022702,159.260916 60.0445609,158.63838 60.0445609,157.907926 C60.0445609,156.646234 60.3807306,155.600372 61.0530799,154.770312 C61.7254293,153.940251 62.6675344,153.392419 63.8794233,153.126799 L63.8794233,150.537022 L66.6684142,150.537022 L66.6684142,153.076996 C67.4652727,153.209805 68.1666636,153.45882 68.7726081,153.824047 C69.3785526,154.189274 69.9305349,154.6375 70.4285714,155.168739 L68.3119266,157.609106 Z M81.7588467,157.609106 C81.3106137,157.210677 80.8831388,156.911859 80.4764089,156.712644 C80.069679,156.51343 79.6339036,156.413824 79.1690695,156.413824 C78.6378305,156.413824 78.2394072,156.505129 77.9737877,156.687743 C77.7081682,156.870356 77.5753604,157.210676 77.5753604,157.708713 C77.5753604,158.024136 77.7330696,158.298052 78.0484928,158.530469 C78.363916,158.762886 78.7623392,158.995299 79.2437746,159.227717 C79.7252099,159.460134 80.23984,159.709148 80.7876802,159.974768 C81.3355204,160.240387 81.8501505,160.564106 82.3315858,160.945934 C82.8130212,161.327762 83.2114445,161.784289 83.5268676,162.315528 C83.8422908,162.846767 84,163.485904 84,164.232959 C84,165.444848 83.6804313,166.490709 83.0412844,167.370574 C82.4021375,168.250438 81.4268305,168.848073 80.1153342,169.163496 L80.1153342,171.803077 L77.3263434,171.803077 L77.3263434,169.312907 C76.612491,169.2299 75.8529966,169.034839 75.0478375,168.727717 C74.2426784,168.420594 73.5246864,167.984818 72.8938401,167.420377 L74.7365662,164.531779 C75.4172162,165.029816 76.0273018,165.386737 76.5668414,165.602553 C77.106381,165.818369 77.6417623,165.926275 78.1730013,165.926275 C78.8038476,165.926275 79.2520738,165.814218 79.5176933,165.590102 C79.7833128,165.365985 79.9161206,165.013215 79.9161206,164.531779 C79.9161206,164.199755 79.7584114,163.905088 79.4429882,163.647769 C79.127565,163.39045 78.7291418,163.137285 78.2477064,162.888267 C77.7662711,162.639249 77.251641,162.377783 76.7038008,162.103863 C76.1559606,161.829943 75.6413305,161.502074 75.1598952,161.120246 C74.6784598,160.738418 74.2800365,160.290192 73.9646134,159.775554 C73.6491902,159.260916 73.491481,158.63838 73.491481,157.907926 C73.491481,156.646234 73.8276506,155.600372 74.5,154.770312 C75.1723494,153.940251 76.1144544,153.392419 77.3263434,153.126799 L77.3263434,150.537022 L80.1153342,150.537022 L80.1153342,153.076996 C80.9121927,153.209805 81.6135837,153.45882 82.2195282,153.824047 C82.8254727,154.189274 83.3774549,154.6375 83.8754915,155.168739 L81.7588467,157.609106 Z" id="$$$" fill="#FF191F"></path>
                <path d="M27.5,160.5 L65.5,130.5" id="Line" stroke="#FF191F" stroke-width="3" stroke-linecap="square"></path>
                <path d="M49,69.5 L49,108.5" id="Line" stroke="#FFFFFF" stroke-width="6" stroke-linecap="square"></path>
                <path d="M85.5,106 L46.5,106" id="Line" stroke="#FFFFFF" stroke-width="6" stroke-linecap="square"></path>
            </g>
        </g>
    </g>
</svg>