<?xml version="1.0" encoding="UTF-8" standalone="no"?>
<svg width="279px" height="166px" viewBox="0 0 279 166" version="1.1" xmlns="http://www.w3.org/2000/svg" xmlns:xlink="http://www.w3.org/1999/xlink">
    <!-- Generator: Sketch 3.8.2 (29753) - http://www.bohemiancoding.com/sketch -->
    <title>Group 11</title>
    <desc>Created with Sketch.</desc>
    <defs>
        <rect id="path-1" x="0" y="0" width="79.8396226" height="127.292818" rx="13.9392"></rect>
        <mask id="mask-2" maskContentUnits="userSpaceOnUse" maskUnits="objectBoundingBox" x="0" y="0" width="79.8396226" height="127.292818" fill="white">
            <use xlink:href="#path-1"></use>
        </mask>
        <rect id="path-3" x="10.1706526" y="9.23899483" width="60.5153828" height="96.4961682" rx="9.29280002"></rect>
        <mask id="mask-4" maskContentUnits="userSpaceOnUse" maskUnits="objectBoundingBox" x="0" y="0" width="60.5153828" height="96.4961682" fill="white">
            <use xlink:href="#path-3"></use>
        </mask>
        <rect id="path-5" x="128.09434" y="52.1546961" width="29.8301887" height="30.0552486"></rect>
        <mask id="mask-6" maskContentUnits="userSpaceOnUse" maskUnits="objectBoundingBox" x="0" y="0" width="29.8301887" height="30.0552486" fill="white">
            <use xlink:href="#path-5"></use>
        </mask>
    </defs>
    <g id="Page-1" stroke="none" stroke-width="1" fill="none" fill-rule="evenodd">
        <g id="iprop-homepage-copy-2" transform="translate(-657.000000, -729.000000)">
            <g id="Group-11" transform="translate(657.000000, 735.000000)">
                <g id="Group-2">
                    <g id="three-stacks-of-coins-copy-2" transform="translate(0.000000, 20.331492)" fill="#4A4A4A">
                        <g id="Capa_1">
                            <path d="M108.835836,53.2950776 C104.349399,53.2950776 99.852116,53.6797361 95.8495716,54.4754224 L95.8495716,11.3882342 C95.8495716,11.2660141 95.8420629,11.1458868 95.8295484,11.0274338 C95.4065594,3.61386408 82.079901,0.287133514 68.86045,0.287133514 C55.640999,0.287133514 42.3139235,3.61386408 41.8913516,11.0274338 C41.8788371,11.1458868 41.8713284,11.2660141 41.8713284,11.3882342 L41.8713284,40.5871175 C37.4241032,39.5072276 32.1997294,38.9877922 26.9891216,38.9877922 C13.7696705,38.9877922 0.442595063,42.3145228 0.0204402998,49.7276739 C0.00750868156,49.8457084 0,49.9662542 0,50.0884743 L0,107.318034 C0,114.986508 13.5556731,118.419135 26.9899559,118.419135 C40.4238215,118.419135 53.9786603,114.986508 53.9786603,107.318034 L53.9786603,106.734978 C58.427137,107.81403 63.6510936,108.332629 68.86045,108.332629 C73.3464701,108.332629 77.8429189,107.947552 81.8467148,107.152284 C81.8467148,114.986508 95.4019707,118.419135 108.835836,118.419135 C122.269702,118.419135 135.824958,114.986508 135.824958,107.318034 L135.824958,64.3961783 C135.824958,64.2739582 135.817866,64.1538309 135.805352,64.0353779 C135.38278,56.6222267 122.055287,53.2950776 108.835836,53.2950776 Z M95.8495716,61.334816 C99.1079222,60.5667548 103.436677,59.9920692 108.835836,59.9920692 C121.031187,59.9920692 127.7744,62.9224216 129.030853,64.3961783 C127.773983,65.869935 121.031187,68.8007059 108.836253,68.8007059 C103.437094,68.8007059 99.1087565,68.2260203 95.8495716,67.4575406 C92.4735849,66.6618542 90.2472608,65.6589798 89.175188,64.8708276 C88.9445046,64.70131 88.7651305,64.5414193 88.6416544,64.3961783 C88.7655477,64.2509373 88.9449217,64.0910466 89.175188,63.921529 C90.2472608,63.1333768 92.4735849,62.1305023 95.8495716,61.334816 L95.8495716,61.334816 Z M68.8600328,6.98370654 C81.054966,6.98370654 87.797762,9.91405892 89.0546319,11.3878156 C87.797762,12.8615723 81.054966,15.7919247 68.86045,15.7919247 C56.6655168,15.7919247 49.9223037,12.8615723 48.6654338,11.3878156 C49.9223037,9.91405892 56.6650997,6.98370654 68.8600328,6.98370654 L68.8600328,6.98370654 Z M48.5452949,19.1031685 C53.7438054,21.4077707 61.3208994,22.4893349 68.86045,22.4893349 C76.4000006,22.4893349 83.9766774,21.4077707 89.1747708,19.1031685 L89.1747708,25.5314433 C88.3096038,26.9382301 81.52551,30.0992101 68.86045,30.0992101 C56.1949728,30.0992101 49.4104619,26.9382301 48.5452949,25.5314433 L48.5452949,19.1031685 L48.5452949,19.1031685 Z M48.5452949,33.4104539 C53.7438054,35.7150561 61.3208994,36.7966203 68.86045,36.7966203 C76.4000006,36.7966203 83.9766774,35.7150561 89.1747708,33.4104539 L89.1747708,39.8391473 C88.3096038,41.2459341 81.52551,44.406077 68.86045,44.406077 C56.1949728,44.406077 49.4104619,41.2459341 48.5452949,39.8391473 L48.5452949,33.4104539 L48.5452949,33.4104539 Z M26.9887044,45.6843652 C33.5112458,45.6843652 38.4728157,46.5227449 41.8709113,47.5281307 C44.8264118,48.4020881 46.5997121,49.4028698 47.1841378,50.0880558 C46.5997121,50.7736603 44.8264118,51.7744419 41.8709113,52.6488179 C38.4728157,53.6537852 33.5120801,54.4921648 26.9899559,54.4921648 C14.7941884,54.4921648 8.05097523,51.5618125 6.79452251,50.0880558 C8.05139238,48.6147176 14.7941884,45.6843652 26.9887044,45.6843652 L26.9887044,45.6843652 Z M6.67438361,57.8034086 C11.8728941,60.1080109 19.4499881,61.189575 26.9899559,61.189575 C32.1980608,61.189575 37.423686,60.6730695 41.8709113,59.5935982 C43.8615462,59.1109962 45.6974188,58.5158011 47.3042767,57.8034086 L47.3042767,64.2325205 C46.8846248,64.9147766 45.0691925,66.0088976 41.8709113,66.9556848 C38.4728157,67.9610706 33.5141658,68.8002874 26.9899559,68.8002874 C14.3240615,68.8002874 7.53955058,65.6393073 6.67438361,64.2325205 L6.67438361,57.8034086 L6.67438361,57.8034086 Z M6.67438361,72.1115311 C11.8728941,74.4161334 19.4499881,75.4976975 26.9899559,75.4976975 C32.1980608,75.4976975 37.423686,74.981192 41.8709113,73.9017207 C43.8615462,73.4191188 45.6974188,72.8239236 47.3042767,72.1115311 L47.3042767,78.5393874 C46.8846248,79.2216434 45.0691925,80.3157644 41.8709113,81.2625516 C38.4728157,82.2679374 33.5141658,83.1071542 26.9899559,83.1071542 C14.3240615,83.1071542 7.53955058,79.9461742 6.67438361,78.5393874 L6.67438361,72.1115311 L6.67438361,72.1115311 Z M6.67438361,86.4179794 C11.8728941,88.7225817 19.4499881,89.8041458 26.9899559,89.8041458 C32.1980608,89.8041458 37.423686,89.2876403 41.8709113,88.208169 C43.8615462,87.725567 45.6974188,87.1303719 47.3042767,86.4179794 L47.3042767,92.8466728 C46.885042,93.5293474 45.0696096,94.6230498 41.8709113,95.569837 C38.4728157,96.5752228 33.5141658,97.4144396 26.9899559,97.4144396 C14.3236444,97.4144396 7.53913344,94.2538781 6.67438361,92.8466728 L6.67438361,86.4179794 L6.67438361,86.4179794 Z M47.3042767,107.154795 C46.4353554,108.562419 39.6508444,111.721725 26.9899559,111.721725 C14.3278159,111.721725 7.54330493,108.562419 6.67438361,107.154795 L6.67438361,100.725683 C11.8728941,103.030286 19.4499881,104.11185 26.9899559,104.11185 C33.0369474,104.11185 39.1043793,103.414107 43.9529018,101.949977 C45.1497022,101.58834 46.274753,101.181916 47.3042767,100.725683 L47.3042767,104.344152 L47.3042767,107.154795 L47.3042767,107.154795 Z M81.8467148,100.291635 C78.5875298,101.060114 74.2604435,101.635637 68.86045,101.635637 C62.33624,101.635637 57.377173,100.79642 53.9786603,99.7906159 L53.9786603,92.4302036 C58.4263027,93.5092564 63.6519279,94.0261804 68.86045,94.0261804 C73.3473044,94.0261804 77.8429189,93.6398477 81.8467148,92.8441614 L81.8467148,100.291635 L81.8467148,100.291635 Z M81.8467148,85.9851863 C78.5875298,86.7532476 74.2604435,87.3287703 68.86045,87.3287703 C62.3358229,87.3287703 57.3767558,86.4895535 53.9786603,85.4841677 L53.9786603,78.1220811 C58.4263027,79.2011339 63.6519279,79.7180579 68.86045,79.7180579 C73.3473044,79.7180579 77.8429189,79.3317252 81.8467148,78.5360389 L81.8467148,85.9851863 L81.8467148,85.9851863 Z M81.8467148,64.3961783 L81.8467148,71.6774824 C78.5875298,72.4459622 74.2604435,73.0210663 68.86045,73.0210663 C62.3358229,73.0210663 57.3767558,72.1818496 53.9786603,71.1764637 L53.9786603,63.8156328 C58.4263027,64.8946856 63.6519279,65.4116096 68.86045,65.4116096 C73.3506416,65.4116096 77.8500104,65.0244398 81.855892,64.2274978 C81.8533891,64.2835851 81.8467148,64.3388353 81.8467148,64.3961783 L81.8467148,64.3961783 Z M68.86045,58.7141995 C62.3358229,58.7141995 57.3767558,57.8749827 53.9786603,56.8695969 L53.9786603,50.0884743 C53.9786603,49.9662542 53.9711516,49.8461269 53.9586371,49.7276739 C53.9540485,49.6489842 53.9398654,49.5736431 53.9323568,49.4957906 C58.3904279,50.582796 63.6335733,51.1034871 68.8600328,51.1034871 C76.3995834,51.1034871 83.9762603,50.021923 89.1743537,47.7177393 L89.1743537,54.1464327 C88.3096038,55.5532195 81.5259272,58.7141995 68.86045,58.7141995 L68.86045,58.7141995 Z M129.150574,107.154795 C128.281653,108.562419 121.497142,111.721725 108.835836,111.721725 C96.1745306,111.721725 89.3896025,108.562419 88.5210984,107.155214 L88.5210984,105.222295 L88.5210984,100.725683 C89.9610966,101.36399 91.5888119,101.905191 93.3420891,102.358912 C97.9194648,103.543024 103.384951,104.11185 108.836253,104.11185 C116.375804,104.11185 123.952898,103.030286 129.150991,100.725683 L129.150991,107.154795 L129.150574,107.154795 Z M129.150574,92.8470913 C128.285824,94.2542967 121.501314,97.4148582 108.835836,97.4148582 C103.435426,97.4148582 99.1083394,96.839754 95.8491544,96.0712742 C92.4727506,95.2755879 90.2460094,94.2727134 89.1747708,93.4845612 C88.8548175,93.2489108 88.63498,93.0325143 88.5210984,92.8470913 L88.5210984,90.9124979 L88.5210984,86.418398 C90.6260321,87.3513726 93.1247545,88.0809261 95.8491544,88.6225453 C99.8533674,89.4182317 104.348982,89.8045644 108.835836,89.8045644 C116.375387,89.8045644 123.952481,88.7230002 129.150574,86.418398 L129.150574,92.8470913 L129.150574,92.8470913 Z M129.150574,78.5393874 C128.285407,79.9461742 121.500896,83.1071542 108.835836,83.1071542 C103.435426,83.1071542 99.1083394,82.5316315 95.8491544,81.7635703 C92.4727506,80.9674654 90.2460094,79.9645909 89.1747708,79.1764387 C88.8548175,78.9416254 88.63498,78.7248103 88.5210984,78.5393874 L88.5210984,76.6047939 L88.5210984,72.1115311 C90.6260321,73.0445058 93.1247545,73.7740593 95.8491544,74.3156785 C99.8533674,75.1113648 104.348982,75.4976975 108.835836,75.4976975 C116.375387,75.4976975 123.952481,74.4161334 129.150574,72.1115311 L129.150574,78.5393874 L129.150574,78.5393874 Z" id="Shape"></path>
                        </g>
                    </g>
                    <g id="Group" transform="translate(199.160377, 15.911602)" stroke="#4A4A4A">
                        <use id="Rectangle-229" mask="url(#mask-2)" stroke-width="11.616" fill="#FFFFFF" xlink:href="#path-1"></use>
                        <use id="Rectangle-229" mask="url(#mask-4)" stroke-width="11.616" fill="#FFFFFF" xlink:href="#path-3"></use>
                        <ellipse id="Oval-34" stroke-width="5.80800001" cx="40.1740776" cy="113.947603" rx="5.08532628" ry="5.13277491"></ellipse>
                    </g>
                    <polygon id="Rectangle-241" fill="#FFFFFF" points="81.5943396 84.8618785 70.1886792 91.9337017 56.1509434 77.7900552 99.1415094 30.9392265 150.90566 39.7790055 150.90566 144.088398 80.7169811 144.088398"></polygon>
                    <path d="M185.122642,30.0552486 L227.235849,74.2541436 L207.933962,91.9337017 C207.933962,91.9337017 200.699165,78.8382136 198.836484,82.0142264 C196.897279,85.3207182 199.160377,113.149171 199.160377,113.149171 L199.160377,145.856354 L185.122642,145.856354 L185.122642,30.0552486 Z" id="Rectangle-242" fill="#FFFFFF"></path>
                    <g id="Group-8-Copy-2" transform="translate(94.754717, 18.563536)">
                        <path d="M1.0080289,54.4660746 L0,54.4660746 L0,119.588555 L94.754717,119.588555 L94.754717,54.4660746 L93.7466881,54.4660746 L47.3773585,0 L1.0080289,54.4660746 Z" id="Combined-Shape" fill="#FF191F"></path>
                        <rect id="Rectangle-219" fill="#FFFFFF" x="34.2486929" y="75.8927368" width="27.3989543" height="65.5437273"></rect>
                        <path d="M31.9654467,115.892506 L3.42486929,115.892506 L3.42486929,58.7065346 L91.8134218,58.6443875 L91.8134218,115.892506 L65.0725165,115.892506 L65.0725165,73.5929569 L31.9654467,73.5929569 L31.9654467,115.892506 Z" id="Combined-Shape" stroke="#4A4A4A" stroke-width="6.86400012"></path>
                    </g>
                    <rect id="Rectangle-216-Copy-2" fill="#FF191F" x="101.773585" y="69.8342541" width="81.5943396" height="18.5635359"></rect>
                    <use id="Rectangle-217-Copy-2" stroke="#4A4A4A" mask="url(#mask-6)" stroke-width="11.4400002" fill="#FFFFFF" xlink:href="#path-5"></use>
                    <g id="Group-Copy-2" transform="translate(70.188679, 0.000000)" stroke="#4A4A4A" stroke-width="8.00800014">
                        <path d="M111.34097,39.0318753 L111.34097,13.5468229" id="Line" stroke-linecap="square"></path>
                        <polyline id="Path-97" points="0 79.4358212 73.7665956 0 143.844861 79.435818"></polyline>
                    </g>
                </g>
            </g>
        </g>
    </g>
</svg>